<?xml version="1.0" encoding="UTF-8"?>
<svg width="204px" height="61px" viewBox="0 0 204 61" version="1.1" xmlns="http://www.w3.org/2000/svg" xmlns:xlink="http://www.w3.org/1999/xlink">
    <title>logo-whiite</title>
    <g id="Logo" stroke="none" stroke-width="1" fill="none" fill-rule="evenodd">
        <g id="Artboard" transform="translate(-13.000000, 0.000000)" fill="#000000">
            <g id="logo-whiite" transform="translate(13.000000, 0.000000)">
                <g id="icon-white" transform="translate(0.000000, 5.000000)">
                    <g id="outer" fill-rule="nonzero">
                        <path d="M8.96915588,14.1883117 C5.74680424,14.1883117 3.125,11.5665074 3.125,8.34495446 C3.125,5.12180427 5.74680424,2.5 8.96915588,2.5 C12.1915074,2.5 14.8133117,5.12180427 14.8133117,8.34495446 C14.8133117,11.5665074 12.1915074,14.1883117 8.96915588,14.1883117 L8.96915588,14.1883117 Z M8.96915588,5.40291154 C7.34799753,5.40291154 6.02791154,6.72299753 6.02791154,8.34495446 C6.02791154,9.96611274 7.34799753,11.2854002 8.96915588,11.2854002 C10.5911127,11.2854002 11.9104002,9.96611274 11.9104002,8.34495446 C11.9104002,6.72299753 10.5911127,5.40291154 8.96915588,5.40291154 L8.96915588,5.40291154 Z" id="Fill-1"></path>
                        <path d="M0,24.9995987 C0,19.4187148 1.79956015,14.1388278 5.2044371,9.73062786 L8.6679081,12.4058883 C5.86101167,16.0403256 4.37689628,20.39555 4.37689628,24.9995987 C4.37689628,36.3708603 13.628337,45.6231037 25.0004013,45.6231037 C36.371663,45.6231037 45.6231037,36.3708603 45.6231037,24.9995987 C45.6231037,13.6275344 36.371663,4.37689628 25.0004013,4.37689628 C21.2254988,4.37689628 17.5348755,5.40429903 14.3266499,7.34914038 L12.0567319,3.60634421 C15.9496252,1.24733116 20.4252484,0 25.0004013,0 C38.7852568,0 50,11.2147432 50,24.9995987 C50,38.7844541 38.7852568,50 25.0004013,50 C11.2147432,50 0,38.7844541 0,24.9995987 Z" id="Fill-5"></path>
                    </g>
                    <g id="inner" transform="translate(10.000000, 10.625000)" fill-rule="nonzero">
                        <path d="M27.7281614,17.961165 C25.5344758,17.961165 23.75,16.1746202 23.75,13.980181 C23.75,11.784939 25.5344758,10 27.7281614,10 C29.9210446,10 31.7055204,11.784939 31.7055204,13.980181 C31.7055204,16.1746202 29.9210446,17.961165 27.7281614,17.961165 L27.7281614,17.961165 Z M27.8136819,12.5 C26.9508794,12.5 26.25,13.2013766 26.25,14.0636086 C26.25,14.9258406 26.9508794,15.6272172 27.8136819,15.6272172 C28.6753026,15.6272172 29.375,14.9258406 29.375,14.0636086 C29.375,13.2013766 28.6753026,12.5 27.8136819,12.5 L27.8136819,12.5 Z" id="Fill-2"></path>
                        <path d="M0,14.4292037 C0,6.47254021 6.53005889,0 14.5564182,0 C21.4000582,0 27.2371111,4.61391841 28.7506955,11.2210822 L25.8329921,11.8786982 C24.6313427,6.63082494 19.9942931,2.965799 14.5564182,2.965799 C8.18026918,2.965799 2.99260073,8.10842105 2.99260073,14.4292037 C2.99260073,20.7508023 8.18026918,25.8934243 14.5564182,25.8934243 C20.0691904,25.8934243 24.8403968,22.0081052 25.902128,16.6566126 L28.8387616,17.2285589 C27.5013093,23.9678986 21.4955317,28.8592233 14.5564182,28.8592233 C6.53005889,28.8592233 0,22.3858673 0,14.4292037 Z" id="Fill-3-Copy"></path>
                    </g>
                    <g id="center" transform="translate(21.250000, 21.250000)">
                        <path d="M7.45830045,3.7317961 C7.45830045,5.79305201 5.78911665,7.46359221 3.72953449,7.46359221 C1.66995226,7.46359221 0,5.79305201 0,3.7317961 C0,1.6705402 1.66995226,0 3.72953449,0 C5.78911665,0 7.45830045,1.6705402 7.45830045,3.7317961" id="Fill-4"></path>
                    </g>
                </g>
                <text id="Sigmie" font-family="NunitoSans-Bold, Nunito Sans" font-size="45" font-weight="bold">
                    <tspan x="61" y="45">Sigmie</tspan>
                </text>
            </g>
        </g>
    </g>
</svg>